<?xml version="1.0" encoding="utf-8"?>
<svg version="1.1" xmlns="http://www.w3.org/2000/svg" xmlns:xlink="http://www.w3.org/1999/xlink" viewBox="0 0 120 120">
<line stroke="#CB9ADB" x1="11.5" y1="37" x2="11.5" y2="28"/>
<line stroke="#CB9ADB" x1="16" y1="32.5" x2="7" y2="32.5"/>
<line stroke="#CB9ADB" x1="92" y1="104.5" x2="97" y2="104.5"/>
<line stroke="#CB9ADB" x1="94.5" y1="107" x2="94.5" y2="102"/>
<line stroke="#CB9ADB" x1="24" y1="105.5" x2="29" y2="105.5"/>
<line stroke="#CB9ADB" x1="26.5" y1="108" x2="26.5" y2="103"/>
<polyline fill="none" stroke="#CB9ADB" points="1.5,60.5 3.5,62.5 1.5,64.5 "/>
<polyline fill="none" stroke="#CB9ADB" points="90.5,31.5 92.5,33.5 90.5,35.5 "/>
<polyline fill="none" stroke="#CB9ADB" points="14.5,87.5 16.5,89.5 14.5,91.5 "/>
<circle fill="none" stroke="#CB9ADB" cx="66.5" cy="103" r="1"/>
<circle fill="none" stroke="#CB9ADB" cx="17.5" cy="67.5" r="1"/>
<circle fill="none" stroke="#CB9ADB" cx="114.5" cy="84" r="1.2"/>
<circle fill="none" stroke="#CB9ADB" cx="80.5" cy="15.5" r="1.5"/>
<circle fill="none" stroke="#CB9ADB" cx="30.5" cy="13.5" r="1"/>
<circle fill="none" stroke="#CB9ADB" cx="53.5" cy="18.5" r="0.5"/>
<circle fill="none" stroke="#CB9ADB" cx="113.5" cy="57" r="0.5"/>
<linearGradient id="SVGID_1_" gradientUnits="userSpaceOnUse" x1="46.087" y1="17.7652" x2="60.3398" y2="81.3326" gradientTransform="matrix(1 0 0 -1 0 120)">
	<stop offset="0" style="stop-color:#FFFFFF;stop-opacity:0"/>
	<stop offset="7.056916e-02" style="stop-color:#E0E0E0;stop-opacity:7.056916e-02"/>
	<stop offset="0.2148" style="stop-color:#A5A5A5;stop-opacity:0.2148"/>
	<stop offset="0.359" style="stop-color:#737373;stop-opacity:0.359"/>
	<stop offset="0.4997" style="stop-color:#494949;stop-opacity:0.4997"/>
	<stop offset="0.6363" style="stop-color:#292929;stop-opacity:0.6363"/>
	<stop offset="0.7676" style="stop-color:#131313;stop-opacity:0.7676"/>
	<stop offset="0.8915" style="stop-color:#050505;stop-opacity:0.8915"/>
	<stop offset="1" style="stop-color:#000000"/>
</linearGradient>
<polyline opacity="0.65" fill="url(#SVGID_1_)" points="29.7,82.7 20.6,91.8 34.3,101 64.2,101 76.5,90.7 "/>
<linearGradient id="SVGID_2_" gradientUnits="userSpaceOnUse" x1="27.0713" y1="60.2" x2="72.4032" y2="60.2" gradientTransform="matrix(1 0 0 -1 0 120)">
	<stop offset="0" style="stop-color:#808080"/>
	<stop offset="7.207337e-02" style="stop-color:#8C8C8C"/>
	<stop offset="0.202" style="stop-color:#ABABAB"/>
	<stop offset="0.2723" style="stop-color:#BFBFBF"/>
	<stop offset="0.2835" style="stop-color:#BDBDBD"/>
	<stop offset="0.449" style="stop-color:#A4A4A4"/>
	<stop offset="0.5987" style="stop-color:#949494"/>
	<stop offset="0.7178" style="stop-color:#8F8F8F"/>
	<stop offset="0.82" style="stop-color:#999999"/>
	<stop offset="0.9939" style="stop-color:#B4B4B4"/>
	<stop offset="1" style="stop-color:#B5B5B5"/>
</linearGradient>
<polygon fill="url(#SVGID_2_)" points="77.1,37 65.6,29 30.3,29 30.3,82.6 41.7,90.6 77.1,90.6 "/>
<g opacity="0.25">
	<polygon points="31.6,42.2 31.6,44.5 36.6,46.8 38.9,45.7 38.9,44 36.6,45.1 32,42.8 32,40.5 	"/>
</g>
<polygon opacity="0.18" fill="#FFFFFF" points="44.1,72.9 44.1,85.9 73.2,72.9 "/>
<g opacity="0.65">
	<path d="M51,83.9c-0.2,0.2,1.1,3.4,2.3,2.3C54.4,85,51.2,83.7,51,83.9z"/>
</g>
<polygon fill="#FFEBB8" points="44.6,72.5 44.6,64.5 65.1,64.5 73.1,72.5 "/>
<rect x="44.6" y="40.5" fill="#AFA180" width="20.5" height="23.9"/>
<polygon fill="#EAD9A7" points="65.1,64.5 73.1,72.5 73.1,40.5 65.1,40.5 "/>
<g opacity="0.2">
	<polygon fill="#FFFFFF" points="30.3,29 41.1,37.1 76.5,37.1 65.1,29.1"/>
</g>
<path fill="none" stroke="#000000" stroke-linejoin="bevel" d="M98.4,79.6"/>
<g opacity="0.1">
	<polygon points="41.7,90.6 41.1,37.1 30.3,29 30.3,82.6 	"/>
</g>
<g opacity="0.65">
	<rect x="60" y="76" width="12" height="11"/>
</g>
<g opacity="0.65">
	<circle cx="51.4" cy="83.9" r="1.1"/>
</g>
<linearGradient id="SVGID_3_" gradientUnits="userSpaceOnUse" x1="51.184" y1="33.3459" x2="52.8231" y2="35.27" gradientTransform="matrix(1 0 0 -1 0 120)">
	<stop offset="0" style="stop-color:#808080"/>
	<stop offset="0.1858" style="stop-color:#8C8C8C"/>
	<stop offset="0.5222" style="stop-color:#ACACAC"/>
	<stop offset="0.9682" style="stop-color:#DFDFDF"/>
	<stop offset="1" style="stop-color:#E3E3E3"/>
</linearGradient>
<path fill="url(#SVGID_3_)" d="M51.4,83.9c-0.2,0.2,1.1,3.4,2.3,2.3C54.8,85,51.6,83.7,51.4,83.9z"/>
<rect x="62.5" y="78.5" fill="#E83F8C" stroke="#C13883" stroke-miterlimit="10" width="7" height="2"/>
<rect x="62" y="82" fill="#8E2B66" width="2" height="1"/>
<rect x="62" y="84" fill="#8E2B66" width="2" height="1"/>
<rect x="65" y="84" fill="#8E2B66" width="2" height="1"/>
<rect x="68" y="84" fill="#8E2B66" width="2" height="1"/>
<rect x="65" y="82" fill="#8E2B66" width="2" height="1"/>
<rect x="68" y="82" fill="#8E2B66" width="2" height="1"/>
<polygon fill="#EAD9A7" points="96.1,81 74.2,72.6 74.2,40.4 96.2,48.1 "/>
<rect x="73.1" y="41.1" fill="#EAD9A7" width="1.1" height="30.9"/>
<linearGradient id="SVGID_4_" gradientUnits="userSpaceOnUse" x1="31.238" y1="77.5" x2="35.0198" y2="77.5" gradientTransform="matrix(1 0 0 -1 0 120)">
	<stop offset="0.5055" style="stop-color:#D1D1D1"/>
	<stop offset="1" style="stop-color:#B5B5B5"/>
</linearGradient>
<polygon fill="url(#SVGID_4_)" points="30.8,41 30.8,43.3 35.8,45.7 38.2,44.4 38.2,42.8 35.8,43.9 31.2,41.7 31.2,39.3 "/>
<line fill="none" stroke="#FFEBB8" stroke-miterlimit="10" x1="85.6" y1="44.4" x2="85.6" y2="77"/>
<line fill="none" stroke="#FFEBB8" stroke-miterlimit="10" x1="74.2" y1="57.2" x2="96.2" y2="64.9"/>
<line fill="none" stroke="#FFEBB8" stroke-miterlimit="10" x1="74.2" y1="48.7" x2="96.2" y2="56.3"/>
<line fill="none" stroke="#FFEBB8" stroke-miterlimit="10" x1="74.2" y1="65.2" x2="96.2" y2="72.8"/>
<circle fill="#FFFFFF" stroke="#9B8E72" stroke-miterlimit="10" cx="85.5" cy="60.5" r="2"/>
<ellipse fill="#EAD9A7" stroke="#FFEBB8" stroke-miterlimit="10" cx="47.9" cy="32.5" rx="2.2" ry="1.1"/>
<ellipse fill="#EAD9A7" stroke="#FFEBB8" stroke-miterlimit="10" cx="58.1" cy="32.5" rx="2.2" ry="1.1"/>
<linearGradient id="SVGID_5_" gradientUnits="userSpaceOnUse" x1="96.1219" y1="56.15" x2="98.4714" y2="56.15" gradientTransform="matrix(1 0 0 -1 0 120)">
	<stop offset="0" style="stop-color:#808080"/>
	<stop offset="0.5916" style="stop-color:#8C8C8C"/>
	<stop offset="0.7178" style="stop-color:#8F8F8F"/>
	<stop offset="0.82" style="stop-color:#999999"/>
	<stop offset="0.9939" style="stop-color:#B4B4B4"/>
	<stop offset="1" style="stop-color:#B5B5B5"/>
</linearGradient>
<polygon fill="url(#SVGID_5_)" points="96.2,48.1 96.1,81 98.4,79.6 98.5,46.7 "/>
<polyline fill="none" stroke="#9B8E72" stroke-miterlimit="10" points="74.2,40.5 74.2,72.6 96.1,81 "/>
<linearGradient id="SVGID_6_" gradientUnits="userSpaceOnUse" x1="74.2" y1="76.35" x2="98.4714" y2="76.35" gradientTransform="matrix(1 0 0 -1 0 120)">
	<stop offset="0" style="stop-color:#808080"/>
	<stop offset="7.207337e-02" style="stop-color:#8C8C8C"/>
	<stop offset="0.202" style="stop-color:#ABABAB"/>
	<stop offset="0.2723" style="stop-color:#BFBFBF"/>
	<stop offset="0.7178" style="stop-color:#8F8F8F"/>
	<stop offset="0.82" style="stop-color:#999999"/>
	<stop offset="0.9939" style="stop-color:#B4B4B4"/>
	<stop offset="1" style="stop-color:#B5B5B5"/>
</linearGradient>
<polygon fill="url(#SVGID_6_)" points="98.5,46.7 76.9,39.2 74.2,40.5 96.2,48.1 "/>
<polygon fill="#C9B991" points="73.1,40.5 65.1,64.5 65.1,40.5 "/>
<path opacity="0.61" fill="none" stroke="#000000" stroke-miterlimit="10" d="M44.6,43.5h20.5c0,0,3.3,2.9,4.4,4s1.2,4.2,0,3s-4.4-4-4.4-4H44.6"/>
<path opacity="0.61" fill="none" stroke="#000000" stroke-miterlimit="10" d="M44.6,50.5h20.5c0,0,3.3,2.9,4.4,4s1.2,4.2,0,3s-4.4-4-4.4-4H44.6"/>
<path opacity="0.61" fill="none" stroke="#000000" stroke-miterlimit="10" d="M44.6,57.5h20.5c0,0,3.3,2.9,4.4,4s1.2,4.2,0,3c-1.2-1.2-4.4-4-4.4-4H44.6"/>
<polygon fill="#EFDBAF" points="65.1,64.5 56.1,72.5 44.6,72.5 44.6,64.5 "/>
<polyline fill="none" stroke="#9B8E72" stroke-miterlimit="10" points="74.4,40.5 44.6,40.5 44.6,72.5 74.4,72.5 "/>
<path fill="none" stroke="#000000" stroke-miterlimit="10" d="M65.1,64.5"/>
<path fill="#FFEBB8" d="M46.1,41h-1H45v31h0.1h1h27h0.5h0.6V41H46.1z M46.1,70.9V42.1h27v28.8C73.1,70.9,46.1,70.9,46.1,70.9z"/>
<circle fill="#E83F8C" stroke="#C13883" stroke-miterlimit="10" cx="51.5" cy="78.5" r="1"/>
<g opacity="0.25">
	<polygon points="31.6,47.6 31.6,49.9 36.6,52.2 38.9,51 38.9,49.3 36.6,50.5 32,48.2 32,45.9 	"/>
</g>
<linearGradient id="SVGID_7_" gradientUnits="userSpaceOnUse" x1="31.988" y1="72.1" x2="40.9755" y2="72.1" gradientTransform="matrix(1 0 0 -1 0 120)">
	<stop offset="0.5055" style="stop-color:#D1D1D1"/>
	<stop offset="1" style="stop-color:#B5B5B5"/>
</linearGradient>
<polygon fill="url(#SVGID_7_)" points="31.6,46.5 31.6,48.8 36.6,51 38.9,49.9 38.9,48.2 36.6,49.3 32,47 32,44.8 "/>
</svg>
