<?xml version="1.0" encoding="utf-8"?>
<svg version="1.1" xmlns="http://www.w3.org/2000/svg" xmlns:xlink="http://www.w3.org/1999/xlink" viewBox="0 0 120 120">
<style type="text/css">
	.st0{opacity:0.58;}
	.st1{fill:url(#SVGID_1_);}
	.st2{fill:url(#SVGID_2_);}
	.st3{opacity:0.35;fill:#FFFFFF;enable-background:new  ;}
	.st4{fill:#E0E0E0;}
	.st5{fill:#787878;}
	.st6{fill:#CECECE;}
	.st7{fill:url(#SVGID_3_);}
	.st8{fill:url(#SVGID_4_);}
	.st9{fill:url(#SVGID_5_);}
	.st10{fill:url(#SVGID_6_);}
	.st11{fill:none;stroke:#57ADBD;stroke-miterlimit:10;}
</style>
<g class="st0">
	<rect x="43.7" y="49.6" transform="matrix(0.1988 -0.98 0.98 0.1988 -18.3796 111.5831)" width="30.7" height="34.9"/>
</g>
<linearGradient id="SVGID_1_" gradientUnits="userSpaceOnUse" x1="46.6879" y1="17.5068" x2="61.1171" y2="58.8888" gradientTransform="matrix(1 0 0 -1 0 120)">
	<stop offset="1.210938e-03" style="stop-color:#FFFFFF;stop-opacity:0"/>
	<stop offset="0.1294" style="stop-color:#EAE9E9;stop-opacity:0.132"/>
	<stop offset="0.3964" style="stop-color:#B2B1B1;stop-opacity:0.4071"/>
	<stop offset="0.7762" style="stop-color:#5A5758;stop-opacity:0.7983"/>
	<stop offset="0.972" style="stop-color:#2A2627"/>
	<stop offset="1" style="stop-color:#000000"/>
</linearGradient>
<ellipse class="st1" cx="50.8" cy="90.7" rx="21" ry="6.8"/>
<linearGradient id="SVGID_2_" gradientUnits="userSpaceOnUse" x1="28.1925" y1="48.3934" x2="77.8573" y2="47.3131" gradientTransform="matrix(0.8111 0.1518 0.1878 -1.003 7.0246 108.7805)">
	<stop offset="2.397896e-03" style="stop-color:#BFBFBF"/>
	<stop offset="6.885716e-02" style="stop-color:#BCBCBC"/>
	<stop offset="0.1238" style="stop-color:#B2B2B2"/>
	<stop offset="0.1615" style="stop-color:#A6A6A6"/>
	<stop offset="0.2981" style="stop-color:#CCCCCC"/>
	<stop offset="0.3036" style="stop-color:#CACACA"/>
	<stop offset="0.4141" style="stop-color:#A3A3A3"/>
	<stop offset="0.4717" style="stop-color:#949494"/>
	<stop offset="0.7167" style="stop-color:#B5B5B5"/>
	<stop offset="0.8547" style="stop-color:#C4C4C4"/>
	<stop offset="0.8607" style="stop-color:#C1C1C1"/>
	<stop offset="0.8971" style="stop-color:#B2B2B2"/>
	<stop offset="0.9392" style="stop-color:#A9A9A9"/>
	<stop offset="1" style="stop-color:#A6A6A6"/>
</linearGradient>
<path class="st2" d="M73.9,73.4c-1-0.2-1.6-1.7-1.3-3.2c0.3-1.6,1.4-2.6,2.4-2.4c0.9,0.2,1.4,1.4,1.3,2.7l4-19.3l-34.6-6.5
	l-7.5,35.7c-0.7,3.5,6.6,7.9,16.1,9.6c9.5,1.8,17.8,0.3,18.5-3.2L76,71.7C75.7,72.8,74.7,73.6,73.9,73.4z M72.5,56.2
	c1.8,0.4,3,1.9,2.7,3.5s-2,2.5-3.8,2.2c-1.8-0.4-3-1.9-2.7-3.5C69,56.8,70.7,55.8,72.5,56.2z M61.6,54.9c1.8,0.4,3,1.9,2.7,3.5
	c-0.3,1.6-2,2.5-3.8,2.2c-1.8-0.4-3-1.9-2.7-3.5C58.1,55.5,59.8,54.5,61.6,54.9z M51.1,51.8c1.8,0.4,3,1.9,2.7,3.5s-2,2.5-3.8,2.2
	c-1.8-0.4-3-1.9-2.7-3.5S49.4,51.4,51.1,51.8z M41.7,64.2c0.3-1.6,1.4-2.6,2.4-2.3c1.1,0.3,1.7,1.8,1.5,3.4
	c-0.3,1.6-1.4,2.6-2.4,2.3C42.1,67.4,41.5,65.8,41.7,64.2z M45.6,78.9c-1.8-0.4-3-1.9-2.7-3.5s2-2.5,3.8-2.2c1.8,0.4,3,1.9,2.7,3.5
	S47.4,79.3,45.6,78.9z M50.8,66.9c0.3-1.6,2-2.5,3.8-2.2c1.8,0.4,3,1.9,2.7,3.5s-2,2.5-3.8,2.2C51.7,70,50.5,68.4,50.8,66.9z
	 M56.1,82c-1.8-0.4-3-1.9-2.7-3.5s2-2.5,3.8-2.2c1.8,0.4,3,1.9,2.7,3.5S57.9,82.4,56.1,82z M61.9,69c0.3-1.6,2-2.5,3.8-2.2
	c1.8,0.4,3,1.9,2.7,3.5s-2,2.5-3.8,2.2C62.8,72.1,61.6,70.5,61.9,69z M66.9,83.3c-1.8-0.4-3-1.9-2.7-3.5s2-2.5,3.8-2.2
	c1.8,0.4,3,1.9,2.7,3.5C70.4,82.7,68.7,83.6,66.9,83.3z"/>
<path class="st3" d="M53.6,53c2.1,0.7,4.4,1.3,6.9,1.8c0.2,0,0.4,0.1,0.6,0.1l1.6-6.5L55,46.8L53.6,53z"/>
<path class="st4" d="M53.8,55.3c-0.3,1.6-2,2.5-3.8,2.2c-1.5-0.3-2.6-1.5-2.7-2.8c-0.1,1.4,1,2.8,2.7,3.2c1.8,0.4,3.5-0.6,3.8-2.2
	c0-0.2,0.1-0.4,0-0.6C53.8,55.1,53.8,55.2,53.8,55.3z"/>
<path class="st5" d="M50.4,57.4c-1.8-0.4-3-1.9-2.7-3.5c0.3-1.3,1.5-2.2,3-2.2c-1.6-0.2-3.1,0.8-3.4,2.2C47,55.5,48.2,57,50,57.4
	c0.3,0.1,0.5,0.1,0.8,0.1C50.7,57.5,50.5,57.5,50.4,57.4z"/>
<path class="st4" d="M45.6,65.4c-0.2,1.6-1.3,2.6-2.3,2.2c-0.9-0.3-1.5-1.5-1.5-2.8c-0.1,1.4,0.5,2.8,1.5,3.1
	c1.1,0.3,2.1-0.7,2.3-2.2c0-0.2,0-0.4,0-0.6C45.6,65.2,45.6,65.3,45.6,65.4z"/>
<path class="st5" d="M43.5,67.6c-1.1-0.3-1.7-1.9-1.5-3.4c0.2-1.3,1-2.2,1.8-2.3c-1-0.1-1.9,0.8-2.1,2.3c-0.2,1.6,0.5,3.1,1.5,3.4
	c0.2,0.1,0.3,0.1,0.5,0C43.6,67.6,43.6,67.6,43.5,67.6z"/>
<path class="st5" d="M46,78.9c-1.8-0.4-3-1.9-2.7-3.5c0.3-1.3,1.5-2.2,3-2.2c-1.6-0.2-3.1,0.8-3.4,2.2c-0.3,1.6,0.9,3.1,2.7,3.5
	c0.3,0.1,0.5,0.1,0.8,0.1C46.2,78.9,46.1,78.9,46,78.9z"/>
<path class="st4" d="M68.6,58.7c-0.1,1.6,1.3,3,3.1,3.1c1.6,0.1,3-0.7,3.4-2c-0.3,1.4-1.8,2.4-3.5,2.3c-1.8-0.1-3.2-1.5-3.1-3.1
	c0-0.2,0.1-0.4,0.1-0.6C68.7,58.5,68.6,58.6,68.6,58.7z"/>
<path class="st5" d="M70.8,61.6c2.1,0.2,3.8-0.9,3.9-2.5c0.1-1.3-1.1-2.6-2.7-3.1c1.9,0.4,3.2,1.7,3.2,3.2
	c-0.1,1.6-1.8,2.7-3.9,2.5c-0.3,0-0.6-0.1-0.9-0.2C70.5,61.6,70.7,61.6,70.8,61.6z"/>
<path class="st4" d="M72.5,70.6c-0.2,1.6,0.5,2.8,1.5,2.8c0.9,0,1.8-1,2.1-2.2c-0.3,1.4-1.2,2.5-2.2,2.5s-1.7-1.3-1.5-2.8
	c0-0.2,0.1-0.4,0.1-0.6C72.6,70.4,72.5,70.5,72.5,70.6z"/>
<path class="st5" d="M73.9,73.4c1,0,2.1-1.3,2.3-2.8c0.2-1.3-0.3-2.4-1.1-2.7c0.9,0.2,1.5,1.3,1.3,2.8c-0.2,1.6-1.2,2.8-2.3,2.8
	c-0.2,0-0.3,0-0.5-0.1C73.7,73.4,73.8,73.4,73.9,73.4z"/>
<path class="st4" d="M64.2,80.2c-0.1,1.6,1.3,3,3.1,3.1c1.6,0.1,3-0.7,3.4-2c-0.3,1.4-1.8,2.4-3.5,2.3c-1.8-0.1-3.2-1.5-3.1-3.1
	c0-0.2,0.1-0.4,0.1-0.6C64.3,80,64.3,80.1,64.2,80.2z"/>
<path class="st5" d="M66.9,83.2c1.8,0.1,3.4-1,3.5-2.6c0.1-1.3-0.9-2.5-2.3-3c1.6,0.3,2.8,1.6,2.7,3.1c-0.1,1.6-1.7,2.8-3.5,2.6
	c-0.3,0-0.5-0.1-0.8-0.2C66.6,83.2,66.8,83.2,66.9,83.2z"/>
<path class="st6" d="M41.5,36.7L40.9,39c-0.8,4.1,9,9.4,21.7,11.8c12.8,2.4,23.8,0.9,24.5-3.2l0.6-2.3"/>
<linearGradient id="SVGID_3_" gradientUnits="userSpaceOnUse" x1="39.7072" y1="77.1569" x2="85.3011" y2="80.2986" gradientTransform="matrix(0.9986 5.201777e-02 5.201777e-02 -0.9986 -1.8049 116.3908)">
	<stop offset="1.198948e-03" style="stop-color:#E8E8E8"/>
	<stop offset="4.639103e-02" style="stop-color:#E5E5E5"/>
	<stop offset="8.379336e-02" style="stop-color:#DBDBDB"/>
	<stop offset="0.1183" style="stop-color:#C9C9C9"/>
	<stop offset="0.1402" style="stop-color:#BABABA"/>
	<stop offset="0.1516" style="stop-color:#B3B3B3"/>
	<stop offset="0.1863" style="stop-color:#A5A5A5"/>
	<stop offset="0.2272" style="stop-color:#9C9C9C"/>
	<stop offset="0.2895" style="stop-color:#999999"/>
	<stop offset="0.3314" style="stop-color:#9E9E9E"/>
	<stop offset="0.4717" style="stop-color:#ADADAD"/>
	<stop offset="0.8358" style="stop-color:#858585"/>
	<stop offset="0.9127" style="stop-color:#D1D1D1"/>
	<stop offset="0.934" style="stop-color:#DFDFDF"/>
	<stop offset="0.961" style="stop-color:#E8E8E8"/>
	<stop offset="1" style="stop-color:#EBEBEB"/>
</linearGradient>
<path class="st7" d="M80.5,37.9c4.9,2.3,7.7,5,7.3,7.3C87,49.4,76,50.8,63.3,48.5c-12.8-2.4-22.5-7.6-21.7-11.8
	c0.4-2.3,4.1-3.8,9.5-4.2"/>
<linearGradient id="SVGID_4_" gradientUnits="userSpaceOnUse" x1="45.5643" y1="84.7582" x2="81.334" y2="79.2797" gradientTransform="matrix(0.9986 5.201777e-02 5.201777e-02 -0.9986 -1.8049 116.3908)">
	<stop offset="1.198948e-03" style="stop-color:#969696"/>
	<stop offset="8.441858e-02" style="stop-color:#9A9A9A"/>
	<stop offset="0.1532" style="stop-color:#A4A4A4"/>
	<stop offset="0.1615" style="stop-color:#A6A6A6"/>
	<stop offset="0.2981" style="stop-color:#E0E0E0"/>
	<stop offset="0.4717" style="stop-color:#D4D4D4"/>
	<stop offset="0.7167" style="stop-color:#B5B5B5"/>
	<stop offset="0.8547" style="stop-color:#C4C4C4"/>
	<stop offset="0.8607" style="stop-color:#C1C1C1"/>
	<stop offset="0.8971" style="stop-color:#B2B2B2"/>
	<stop offset="0.9392" style="stop-color:#A9A9A9"/>
	<stop offset="1" style="stop-color:#A6A6A6"/>
</linearGradient>
<path class="st8" d="M49.2,28l-1.3,7c-0.7,3.5,6.6,7.9,16.1,9.6c9.5,1.8,17.8,0.3,18.5-3.2l1.3-7.1"/>
<linearGradient id="SVGID_5_" gradientUnits="userSpaceOnUse" x1="49.2788" y1="97.5308" x2="72.5562" y2="83.2377" gradientTransform="matrix(0.9986 5.201777e-02 5.201777e-02 -0.9986 -1.8049 116.3908)">
	<stop offset="1.198948e-03" style="stop-color:#B8B8B8"/>
	<stop offset="0.1307" style="stop-color:#B4B4B4"/>
	<stop offset="0.2379" style="stop-color:#AAAAAA"/>
	<stop offset="0.3369" style="stop-color:#999999"/>
	<stop offset="0.3481" style="stop-color:#969696"/>
	<stop offset="0.7533" style="stop-color:#C4C4C4"/>
	<stop offset="0.7636" style="stop-color:#C8C8C8"/>
	<stop offset="0.8253" style="stop-color:#D7D7D7"/>
	<stop offset="0.8968" style="stop-color:#E0E0E0"/>
	<stop offset="1" style="stop-color:#E3E3E3"/>
</linearGradient>
<path class="st9" d="M83.7,34.4c-0.7,3.5-8.9,5-18.5,3.2s-16.7-6.1-16-9.6s8.9-5,18.5-3.2C77.2,26.5,84.4,30.8,83.7,34.4z"/>
<linearGradient id="SVGID_6_" gradientUnits="userSpaceOnUse" x1="48.3637" y1="88.7326" x2="79.0714" y2="88.7326" gradientTransform="matrix(0.9986 5.201777e-02 5.201777e-02 -0.9986 -1.8049 116.3908)">
	<stop offset="1.198948e-03" style="stop-color:#404040"/>
	<stop offset="0.1542" style="stop-color:#434343"/>
	<stop offset="0.2808" style="stop-color:#4D4D4D"/>
	<stop offset="0.3976" style="stop-color:#5E5E5E"/>
	<stop offset="0.4717" style="stop-color:#6E6E6E"/>
	<stop offset="0.8547" style="stop-color:#B0B0B0"/>
	<stop offset="0.8681" style="stop-color:#A1A1A1"/>
	<stop offset="0.8934" style="stop-color:#8B8B8B"/>
	<stop offset="0.9213" style="stop-color:#7C7C7C"/>
	<stop offset="0.9535" style="stop-color:#737373"/>
	<stop offset="1" style="stop-color:#707070"/>
</linearGradient>
<path class="st10" d="M81.7,33.9c-0.5,2.6-7.7,3.5-16.1,1.9s-14.8-4.9-14.3-7.5s7.7-3.5,16.1-1.9S82.1,31.3,81.7,33.9z"/>
<path class="st5" d="M60.6,60c-1.7-0.4-2.9-1.8-2.7-3.3c0,0.1-0.1,0.2-0.1,0.3c-0.3,1.6,0.9,3.1,2.7,3.5s3.5-0.6,3.8-2.2
	c0-0.1,0-0.1,0-0.2C63.9,59.6,62.3,60.4,60.6,60z"/>
<path class="st5" d="M53.6,69.9c-1.7-0.4-2.9-1.8-2.7-3.3c0,0.1-0.1,0.2-0.1,0.3c-0.3,1.6,0.9,3.1,2.7,3.5s3.5-0.6,3.8-2.2
	c0-0.1,0-0.1,0-0.2C56.8,69.5,55.3,70.3,53.6,69.9z"/>
<path class="st5" d="M64.7,72c-1.7-0.4-2.9-1.8-2.7-3.3c0,0.1-0.1,0.2-0.1,0.3c-0.3,1.6,0.9,3.1,2.7,3.5c1.8,0.4,3.5-0.6,3.8-2.2
	c0-0.1,0-0.1,0-0.2C67.9,71.5,66.4,72.4,64.7,72z"/>
<path class="st5" d="M56.2,81.6c-1.7-0.4-2.9-1.8-2.7-3.3c0,0.1-0.1,0.2-0.1,0.3c-0.3,1.6,0.9,3.1,2.7,3.5s3.5-0.6,3.8-2.2
	c0-0.1,0-0.1,0-0.2C59.4,81.1,57.9,81.9,56.2,81.6z"/>
<line class="st11" x1="22" y1="42.5" x2="31" y2="42.5"/>
<line class="st11" x1="26.5" y1="47" x2="26.5" y2="38"/>
<line class="st11" x1="82" y1="103.5" x2="87" y2="103.5"/>
<line class="st11" x1="84.5" y1="106" x2="84.5" y2="101"/>
<circle class="st11" cx="108.5" cy="41.5" r="1.5"/>
<circle class="st11" cx="34.5" cy="102.5" r="1.5"/>
<circle class="st11" cx="74.5" cy="12.5" r="1.5"/>
<circle class="st11" cx="28.5" cy="105.5" r="2"/>
<circle class="st11" cx="17.5" cy="64.5" r="1.5"/>
<circle class="st11" cx="17.5" cy="78.5" r="0.5"/>
<circle class="st11" cx="94.5" cy="103.5" r="0.5"/>
<circle class="st11" cx="41.5" cy="8.5" r="0.5"/>
<polyline class="st11" points="94.5,63.5 96.5,65.5 94.5,67.5 "/>
<polyline class="st11" points="13.5,24.5 15.5,26.5 13.5,28.5 "/>
</svg>
