<?xml version="1.0" encoding="utf-8"?>
<svg version="1.1" xmlns="http://www.w3.org/2000/svg" viewBox="0 0 24 24">
<path fill="#4a4a4a" stroke="none" d="M15.2,14.6c1,0.8,1.1,1.6,1.1,2.6c0,1.1,0,2.1,0,3.2c0,0.6,0.2,1.1,0.8,1.4c0.2,0.2,0.3,0.3,0.5,0.5
	c-0.3,0-0.6,0.2-1,0.2c-1.1-0.2-1.6-0.3-1.6-1.8c0-1,0-1.9,0-2.9c0-0.3-0.3-0.8-0.6-1.1c-0.2,0.2-0.2,0.3-0.2,0.5
	c0,1.3,0,2.6,0,3.7c0,0.5,0.2,1,0.5,1.3c0.2,0.2,0.2,0.5,0.3,0.6c0,0.3-0.2,0.3-0.2,0.3c-0.8,0-1.4-0.8-1.6-1.6c0-0.6,0-1.3,0-1.8
	c0-1,0-1.8,0-2.7c0-0.2,0-0.3,0-0.5c-0.3,0-0.6,0.3-0.6,0.5c0,1.3,0,2.7,0,4c0,0.6-0.2,1.1-0.6,1.6c-0.3,0.2-0.6,0.3-1,0.5
	c-0.2,0-0.3,0-0.5-0.2c0-0.2,0-0.2,0-0.2c0.8-0.6,0.8-1.6,1-2.4c0-1.1,0-2.2,0-3.5c-0.3,0.2-0.8,0.5-1,0.6c0,0.3,0,0.6,0,1.1
	c0,0.8,0,1.6,0,2.4c0,0.6,0,1-0.6,1.3S8.8,22.7,8,22.4c0.3-0.3,0.5-0.5,0.6-0.6c0.5-0.3,0.6-0.6,0.6-1.1c0-0.6,0-1.4,0-2.1
	c-0.5,0-0.8,0-1.1,0c-1.6,0-2.7-0.5-3.4-2.1c-0.3-0.6-0.8-1.1-1.3-1.6c-0.2-0.2-0.3-0.3-0.5-0.5c0.2-0.2,0.3-0.2,0.5-0.2
	c0.6,0,1.3,0.2,1.8,0.8c0,0,0.2,0.3,0.5,0.6c1,1.1,2.1,1.3,3.4,0.6c0.3-0.6,0.6-1.1,1-1.6c-1-0.3-1.8-0.5-2.7-0.8
	c-2.1-0.6-3.2-2.1-3.7-4c-0.2-1.3-0.3-2.4,0-3.7c0-0.3,0.3-0.8,0.5-1.1c0.2-0.5,0.5-0.8,0.8-1.3C4.6,2.7,4.4,1.4,5.1,0.2
	C6.7,0,7.8,1,8.9,1.6c2.2-0.6,4.5-0.5,6.7-0.2C16.9,0.8,18,0,19.5,0C19.8,0.6,20,1.1,20,1.8s0,1.1-0.2,1.8C20,3.7,20.1,3.8,20.1,4
	c0.6,1,1.1,1.9,1.1,3c0.2,1.3,0,2.4-0.3,3.7c-0.3,1.4-1.3,2.4-2.6,2.9C17.6,14.2,16.4,14.4,15.2,14.6z"/>
</svg>