<?xml version="1.0" encoding="utf-8"?>
<svg version="1.1" xmlns="http://www.w3.org/2000/svg" xmlns:xlink="http://www.w3.org/1999/xlink" viewBox="0 0 120 120">
<style type="text/css">
	.st0{fill:url(#SVGID_1_);}
	.st1{fill:url(#SVGID_2_);}
	.st2{fill:url(#SVGID_3_);}
	.st3{opacity:0.24;fill:url(#SVGID_4_);enable-background:new;}
	.st4{fill:url(#SVGID_5_);}
	.st5{fill:url(#SVGID_6_);}
	.st6{fill:url(#SVGID_7_);}
	.st7{fill:url(#SVGID_8_);}
	.st8{fill:url(#SVGID_9_);stroke:#ABABAB;stroke-miterlimit:10;}
	.st9{opacity:0.73;fill:#41E5CD;enable-background:new;}
	.st10{opacity:0.27;fill:#FFFFFF;enable-background:new;}
	.st11{opacity:0.24;fill:#FFFFFF;enable-background:new;}
	.st12{opacity:0.32;fill:#FFFFFF;enable-background:new;}
	.st13{opacity:0.48;fill:none;stroke:#FFFFFF;stroke-miterlimit:10;enable-background:new;}
	.st14{fill:url(#SVGID_10_);}
	.st15{opacity:8.000000e-02;fill:none;stroke:#FFFFFF;stroke-linecap:round;stroke-linejoin:round;stroke-miterlimit:10;enable-background:new;}
	.st16{fill:url(#SVGID_11_);}
	.st17{fill:url(#SVGID_12_);}
	.st18{opacity:0.12;fill:#FFFFFF;enable-background:new;}
	.st19{fill:url(#SVGID_13_);}
	.st20{fill:none;stroke:#CCCCCC;stroke-miterlimit:10;}
	.st21{fill:url(#SVGID_14_);stroke:#7C7C7C;stroke-miterlimit:10;}
	.st22{fill:none;stroke:#7C7C7C;stroke-miterlimit:10;}
	.st23{fill:url(#SVGID_15_);}
	.st24{fill:none;stroke:#8F9CC9;stroke-miterlimit:10;}
</style>
<linearGradient id="SVGID_1_" gradientUnits="userSpaceOnUse" x1="62.1186" y1="34.1613" x2="76.0285" y2="52.1758" gradientTransform="matrix(1.0059 -0.2541 -0.3015 -0.9745 9.7277 141.4468)">
	<stop  offset="0" style="stop-color:#FFFFFF;stop-opacity:0"/>
	<stop  offset="8.723259e-03" style="stop-color:#F9F9F9;stop-opacity:2.616978e-03"/>
	<stop  offset="8.689910e-02" style="stop-color:#C5C5C5;stop-opacity:2.606973e-02"/>
	<stop  offset="0.1704" style="stop-color:#969696;stop-opacity:5.112954e-02"/>
	<stop  offset="0.2574" style="stop-color:#6E6E6E;stop-opacity:7.721613e-02"/>
	<stop  offset="0.3486" style="stop-color:#4C4C4C;stop-opacity:0.1046"/>
	<stop  offset="0.4452" style="stop-color:#303030;stop-opacity:0.1336"/>
	<stop  offset="0.5492" style="stop-color:#1B1B1B;stop-opacity:0.1648"/>
	<stop  offset="0.6642" style="stop-color:#0C0C0C;stop-opacity:0.1993"/>
	<stop  offset="0.7987" style="stop-color:#030303;stop-opacity:0.2396"/>
	<stop  offset="1" style="stop-color:#000000;stop-opacity:0.3"/>
</linearGradient>
<path class="st0" d="M71.1,99.6L46.7,97l22.2-23.5c0,0,10,5,10.5,6.7C80.3,82.9,71.1,99.6,71.1,99.6z"/>
<linearGradient id="SVGID_2_" gradientUnits="userSpaceOnUse" x1="67.8839" y1="43.8361" x2="85.4785" y2="43.8361" gradientTransform="matrix(0.9511 -0.309 -0.309 -0.9511 11.9293 148.7662)">
	<stop  offset="0" style="stop-color:#000000"/>
	<stop  offset="0.3218" style="stop-color:#3D3D3D"/>
	<stop  offset="0.6436" style="stop-color:#262626"/>
	<stop  offset="1" style="stop-color:#737373"/>
</linearGradient>
<path class="st1" d="M78.9,78.1l0.6,1.7c0.6,2-2.6,4.8-7.2,6.3s-8.9,1.1-9.5-0.9l-0.6-1.9"/>
<linearGradient id="SVGID_3_" gradientUnits="userSpaceOnUse" x1="58.83" y1="56.6242" x2="94.5325" y2="56.6242" gradientTransform="matrix(0.9511 -0.309 -0.309 -0.9511 11.9293 148.7662)">
	<stop  offset="0" style="stop-color:#1C1C1C"/>
	<stop  offset="0.1384" style="stop-color:#101010"/>
	<stop  offset="0.2723" style="stop-color:#000000"/>
	<stop  offset="0.7178" style="stop-color:#000000"/>
	<stop  offset="0.7491" style="stop-color:#0A0A0A"/>
	<stop  offset="0.8024" style="stop-color:#252525"/>
	<stop  offset="0.8715" style="stop-color:#525252"/>
	<stop  offset="0.9527" style="stop-color:#8E8E8E"/>
	<stop  offset="1" style="stop-color:#B5B5B5"/>
</linearGradient>
<path class="st2" d="M46.9,65.3c0,0,3.8,23.9,24.1,17.3s9.4-28.1,9.4-28.1"/>
<linearGradient id="SVGID_4_" gradientUnits="userSpaceOnUse" x1="66.835" y1="35.7494" x2="73.1188" y2="77.0129" gradientTransform="matrix(0.9511 -0.309 -0.309 -0.9511 11.9293 148.7662)">
	<stop  offset="0" style="stop-color:#A8A8A8"/>
	<stop  offset="0.1253" style="stop-color:#9C9C9C"/>
	<stop  offset="0.3523" style="stop-color:#7C7C7C"/>
	<stop  offset="0.6551" style="stop-color:#484848"/>
	<stop  offset="1" style="stop-color:#050505"/>
</linearGradient>
<path class="st3" d="M73.4,81.8c0,0,2.4-4.8-0.3-9.1c-2.7-4.4-7.7-5.4-7.7-5.4c-9,2.8-17.2,2-18.5-1.9c0,0,3.8,23.9,24.1,17.3
	C71.8,82.4,72.6,82.1,73.4,81.8"/>
<linearGradient id="SVGID_5_" gradientUnits="userSpaceOnUse" x1="65.212" y1="67.3066" x2="89.2474" y2="69.9772" gradientTransform="matrix(0.9511 -0.309 -0.309 -0.9511 11.9293 148.7662)">
	<stop  offset="0" style="stop-color:#262626"/>
	<stop  offset="0.2595" style="stop-color:#323232"/>
	<stop  offset="0.2723" style="stop-color:#333333"/>
	<stop  offset="0.7178" style="stop-color:#1C1C1C"/>
	<stop  offset="0.8389" style="stop-color:#262626"/>
	<stop  offset="1" style="stop-color:#3B3B3B"/>
</linearGradient>
<path class="st4" d="M80.4,54.4c1.3,4-5.2,9.6-14.4,12.6s-17.8,2.2-19.1-1.7s5.2-9.6,14.4-12.6C70.6,49.7,79.1,50.5,80.4,54.4z"/>
<linearGradient id="SVGID_6_" gradientUnits="userSpaceOnUse" x1="61.5769" y1="68.5814" x2="91.7453" y2="68.5814" gradientTransform="matrix(0.9511 -0.309 -0.309 -0.9511 11.9293 148.7662)">
	<stop  offset="0" style="stop-color:#000000"/>
	<stop  offset="0.3218" style="stop-color:#121212"/>
	<stop  offset="0.6436" style="stop-color:#000000"/>
	<stop  offset="1" style="stop-color:#6B6B6B"/>
</linearGradient>
<path class="st5" d="M78,55.2c1,3.2-4.6,7.8-12.5,10.4s-15.2,2.1-16.2-1.1s4.6-7.8,12.5-10.4C69.7,51.6,77,52,78,55.2z"/>
<linearGradient id="SVGID_7_" gradientUnits="userSpaceOnUse" x1="67.2657" y1="63.8639" x2="88.1681" y2="66.1864" gradientTransform="matrix(0.9511 -0.309 -0.309 -0.9511 11.9293 148.7662)">
	<stop  offset="0" style="stop-color:#9C9C9C"/>
	<stop  offset="5.058507e-02" style="stop-color:#A8A8A8"/>
	<stop  offset="0.1422" style="stop-color:#C8C8C8"/>
	<stop  offset="0.2636" style="stop-color:#FBFBFB"/>
	<stop  offset="0.2723" style="stop-color:#FFFFFF"/>
	<stop  offset="0.7178" style="stop-color:#D6D6D6"/>
	<stop  offset="0.8067" style="stop-color:#CCCCCC"/>
	<stop  offset="0.958" style="stop-color:#B1B1B1"/>
	<stop  offset="1" style="stop-color:#A8A8A8"/>
</linearGradient>
<path class="st6" d="M50.3,66.9c0,0,5.6-3.9,8.2-4.7s12.1-0.8,14.3-3.1c2.1-2.3,4.5-2.7,4.5-2.7l2,0.6c0,0-3.3,7.5-14.2,9.4
	S50.3,66.9,50.3,66.9z"/>
<linearGradient id="SVGID_8_" gradientUnits="userSpaceOnUse" x1="65.2117" y1="67.3094" x2="89.2471" y2="69.98" gradientTransform="matrix(0.9511 -0.309 -0.309 -0.9511 11.9293 148.7662)">
	<stop  offset="0" style="stop-color:#262626"/>
	<stop  offset="0.2595" style="stop-color:#323232"/>
	<stop  offset="0.2723" style="stop-color:#333333"/>
	<stop  offset="0.7178" style="stop-color:#1C1C1C"/>
	<stop  offset="0.8389" style="stop-color:#262626"/>
	<stop  offset="1" style="stop-color:#3B3B3B"/>
</linearGradient>
<path class="st7" d="M61.3,52.7c-9.2,3-15.7,8.6-14.4,12.6c1.3,4,9.8,4.7,19.1,1.7c9.2-3,15.7-8.6,14.4-12.6S70.6,49.7,61.3,52.7z
	 M65.5,65.6c-7.9,2.6-15.2,2.1-16.2-1.1c-1-3.2,4.6-7.8,12.5-10.4S77,52,78,55.2S73.5,63,65.5,65.6z"/>
<linearGradient id="SVGID_9_" gradientUnits="userSpaceOnUse" x1="51.4257" y1="102.7109" x2="54.9865" y2="88.8866" gradientTransform="matrix(0.9511 -0.309 -0.309 -0.9511 11.9293 148.7662)">
	<stop  offset="0" style="stop-color:#808080"/>
	<stop  offset="7.207337e-02" style="stop-color:#8C8C8C"/>
	<stop  offset="0.202" style="stop-color:#ABABAB"/>
	<stop  offset="0.2723" style="stop-color:#BFBFBF"/>
	<stop  offset="0.7178" style="stop-color:#8F8F8F"/>
	<stop  offset="0.82" style="stop-color:#999999"/>
	<stop  offset="0.9939" style="stop-color:#B4B4B4"/>
	<stop  offset="1" style="stop-color:#B5B5B5"/>
</linearGradient>
<path class="st8" d="M38.8,26.1c0,0,6-2,10.2,7.4c3.1,7.1,0.1,11.9,0.1,11.9s-0.9,5-1.6,5.8c-0.6,0.9-4.5-1.7-4.5-1.7L27.4,57
	c-3.9,1.3-8.6-2.7-10.6-8.8s-0.4-12,3.5-13.2L38.8,26.1z"/>
<path class="st9" d="M21.6,55.6L43.5,46c0,0,5.1-1.1,9.3,3.5s8.9,14.3,8.9,14.3l-6.2,1.8c0,0-4.9-16.2-11.3-16.5L27.4,57
	c0,0-2.9,0.2-3.9-0.3S21.6,55.6,21.6,55.6z"/>
<path class="st10" d="M36,41L18.9,52.5c0,0-1.3-1.5-1.9-3.7s-0.8-3-0.8-3L35,38L36,41z"/>
<path class="st11" d="M42.4,49.8c0,0-1.8-1-3.3-3.2S37.3,44,37.3,44L21.6,55.6c0,0,3.2,2.7,5.8,1.5C30,55.8,42.4,49.8,42.4,49.8z"/>
<ellipse transform="matrix(0.9511 -0.309 0.309 0.9511 -13.0404 9.6347)" class="st12" cx="23.9" cy="46" rx="7.4" ry="11.6"/>
<path class="st13" d="M20.3,35c3.9-1.3,8.6,2.7,10.6,8.8s0.4,12.1-3.4,13.3"/>
<linearGradient id="SVGID_10_" gradientUnits="userSpaceOnUse" x1="115.4696" y1="90.5822" x2="117.9831" y2="85.241" gradientTransform="matrix(0.9511 -0.309 -0.309 -0.9511 11.9293 148.7662)">
	<stop  offset="0" style="stop-color:#0D0D0D"/>
	<stop  offset="0.1258" style="stop-color:#171717"/>
	<stop  offset="0.3408" style="stop-color:#323232"/>
	<stop  offset="0.619" style="stop-color:#5E5E5E"/>
	<stop  offset="0.9464" style="stop-color:#9B9B9B"/>
	<stop  offset="1" style="stop-color:#A6A6A6"/>
</linearGradient>
<path class="st14" d="M95.2,39l-2.3-7.2c0,0,3.2-4.3,4.8-5.5s5.2-2.3,5.6-3.1c0.4-0.8-2-4-3.6-2.8s-4,3.9-4,3.9s-3.2,4.3-3.6,5.1
	S87.3,31,87.3,31l1.9,6L95.2,39z"/>
<path class="st15" d="M49,70.9c6.2,1.8,11.8,0.5,17.8-1.5c-3.4,5.7-8.4,7.4-15.1,6.7c6.7,1.2,11.8,0.4,17.8-2.3
	c-3.8,4-7,6.4-12.4,7.2c5.8,0.2,11.4-0.4,16.4-3.2c0,0-3.6,4.1-11.2,5.2"/>
<linearGradient id="SVGID_11_" gradientUnits="userSpaceOnUse" x1="94.6023" y1="80.6239" x2="114.8227" y2="84.3538" gradientTransform="matrix(0.9511 -0.309 -0.309 -0.9511 11.9293 148.7662)">
	<stop  offset="0" style="stop-color:#707070"/>
	<stop  offset="8.280560e-02" style="stop-color:#7C7C7C"/>
	<stop  offset="0.2322" style="stop-color:#9C9C9C"/>
	<stop  offset="0.2723" style="stop-color:#A6A6A6"/>
	<stop  offset="0.7178" style="stop-color:#303030"/>
	<stop  offset="0.7574" style="stop-color:#3B3B3B"/>
	<stop  offset="0.8251" style="stop-color:#565656"/>
	<stop  offset="0.9125" style="stop-color:#828282"/>
	<stop  offset="1" style="stop-color:#B5B5B5"/>
</linearGradient>
<polygon class="st16" points="79.7,48.1 76.5,44.5 85,31.8 91.7,32.3 "/>
<linearGradient id="SVGID_12_" gradientUnits="userSpaceOnUse" x1="88.7731" y1="74.8673" x2="115.6548" y2="56.2811" gradientTransform="matrix(0.9511 -0.309 -0.309 -0.9511 11.9293 148.7662)">
	<stop  offset="0" style="stop-color:#FFFFFF"/>
	<stop  offset="0.9368" style="stop-color:#312D2E"/>
	<stop  offset="1" style="stop-color:#000000"/>
</linearGradient>
<path class="st17" d="M85.7,40.2c0,0-13.1,4.3-14,13.8s-5.3,8.9-0.8,8.1s4.7-4.1,4.7-4.1s-0.8-4.5,2-8
	C80.4,46.4,85.7,40.2,85.7,40.2z"/>
<polygon class="st18" points="85.5,40.7 83.7,33.6 85,31.8 86.4,40.3 "/>
<linearGradient id="SVGID_13_" gradientUnits="userSpaceOnUse" x1="109.2103" y1="89.8724" x2="100.3083" y2="65.8893" gradientTransform="matrix(0.9511 -0.309 -0.309 -0.9511 11.9293 148.7662)">
	<stop  offset="0" style="stop-color:#808080"/>
	<stop  offset="7.207337e-02" style="stop-color:#8C8C8C"/>
	<stop  offset="0.202" style="stop-color:#ABABAB"/>
	<stop  offset="0.2723" style="stop-color:#BFBFBF"/>
	<stop  offset="0.7178" style="stop-color:#8F8F8F"/>
	<stop  offset="0.82" style="stop-color:#999999"/>
	<stop  offset="0.9939" style="stop-color:#B4B4B4"/>
	<stop  offset="1" style="stop-color:#B5B5B5"/>
</linearGradient>
<polygon class="st19" points="79.7,48.1 95.2,39 91.7,32.3 "/>
<path class="st20" d="M42.9,49.6c-3.1-0.8-6.1-5.6-7.6-10.2c-2-6.1-0.4-12.1,3.4-13.3s8.6,2.7,10.6,8.8c1.4,4.2,1.1,8.3-0.5,10.9"/>
<linearGradient id="SVGID_14_" gradientUnits="userSpaceOnUse" x1="67.1932" y1="86.8505" x2="67.1932" y2="86.8505" gradientTransform="matrix(0.9511 -0.309 -0.309 -0.9511 11.9293 148.7662)">
	<stop  offset="0" style="stop-color:#808080"/>
	<stop  offset="7.207337e-02" style="stop-color:#8C8C8C"/>
	<stop  offset="0.202" style="stop-color:#ABABAB"/>
	<stop  offset="0.2723" style="stop-color:#BFBFBF"/>
	<stop  offset="0.7178" style="stop-color:#8F8F8F"/>
	<stop  offset="0.82" style="stop-color:#999999"/>
	<stop  offset="0.9939" style="stop-color:#B4B4B4"/>
	<stop  offset="1" style="stop-color:#B5B5B5"/>
</linearGradient>
<path class="st21" d="M49,45.4"/>
<polyline class="st22" points="33.9,46.1 33.1,44.3 23.5,48.7 24.2,50.2 "/>
<line class="st22" x1="27.8" y1="46.7" x2="28.6" y2="48.3"/>
<linearGradient id="SVGID_15_" gradientUnits="userSpaceOnUse" x1="93.6474" y1="81.7292" x2="111.8726" y2="81.7292" gradientTransform="matrix(0.9511 -0.309 -0.309 -0.9511 11.9293 148.7662)">
	<stop  offset="0" style="stop-color:#808080"/>
	<stop  offset="6.986227e-02" style="stop-color:#8C8C8C"/>
	<stop  offset="0.1958" style="stop-color:#ABABAB"/>
	<stop  offset="0.2723" style="stop-color:#C2C2C2"/>
	<stop  offset="0.7178" style="stop-color:#8F8F8F"/>
	<stop  offset="0.7593" style="stop-color:#999999"/>
	<stop  offset="0.8301" style="stop-color:#B4B4B4"/>
	<stop  offset="0.844" style="stop-color:#BABABA"/>
	<stop  offset="1" style="stop-color:#C7C7C7"/>
</linearGradient>
<polygon class="st23" points="76.9,44.9 85.2,32.5 90.3,32.9 79.4,47.3 79.7,48.1 91.7,32.3 85,31.8 76.5,44.5 "/>
<line class="st24" x1="34.2" y1="81.5" x2="42.8" y2="81.5"/>
<line class="st24" x1="38.5" y1="86" x2="38.5" y2="77"/>
<line class="st24" x1="81" y1="105.5" x2="86" y2="105.5"/>
<line class="st24" x1="83.5" y1="108" x2="83.5" y2="103"/>
<circle class="st24" cx="106.5" cy="42.5" r="1.1"/>
<circle class="st24" cx="33.5" cy="104.5" r="1.5"/>
<circle class="st24" cx="72.5" cy="14.5" r="1.5"/>
<circle class="st24" cx="53.5" cy="96.5" r="1.5"/>
<circle class="st24" cx="15.5" cy="65.5" r="1.5"/>
<circle class="st24" cx="16.5" cy="79.5" r="0.5"/>
<circle class="st24" cx="92.5" cy="104.5" r="0.5"/>
<circle class="st24" cx="39.5" cy="9.5" r="0.5"/>
<polyline class="st24" points="93.5,65.5 95.5,67.5 93.5,69.5 "/>
<polyline class="st24" points="14.5,21.5 16.5,23.5 14.5,25.5 "/>
</svg>
