<?xml version="1.0" encoding="utf-8"?>
<svg version="1.1" id="Layer_1" xmlns="http://www.w3.org/2000/svg" viewBox="0 0 35 35">
<style type="text/css">
	.st2{fill:url(#SVGID_1_);}
	.st3{fill:#999999;}
</style>
<polygon fill="#EBEBEB" points="17.5,22.5 23,6.8 9.8,21.7"/>
<rect fill="#595959" x="12.9" y="14" transform="matrix(0.3293 -0.9442 0.9442 0.3293 7.776067e-02 30.0574)" width="16.5" height="2"/>
<linearGradient id="SVGID_1_" gradientUnits="userSpaceOnUse" x1="0.1809" y1="17.5" x2="34.3191" y2="17.5">
	<stop offset="0" style="stop-color:#4B96A3"/>
	<stop offset="1" style="stop-color:#5EBBCC"/>
</linearGradient>
<path class="st2" d="M31.3,2.7H3.2c-1.7,0-3,1.4-3,3v23.5c0,1.7,1.4,3,3,3h28.1c1.7,0,3-1.4,3-3V5.7C34.3,4.1,33,2.7,31.3,2.7z
		M17.6,27.9c-0.7,0-1.3-0.6-1.3-1.3c0-0.7,0.6-1.3,1.3-1.3c0.7,0,1.3,0.6,1.3,1.3C18.9,27.3,18.3,27.9,17.6,27.9z M32.3,19
	c0,0.6-0.5,1.2-1.2,1.2H3.3c-0.6,0-1.2-0.5-1.2-1.2V5.9c0-0.6,0.5-1.2,1.2-1.2h27.8c0.6,0,1.2,0.5,1.2,1.2V19z"/>
<path class="st3" d="M28.1,14.7c-0.5-0.2-0.9-0.4-1.4-0.6l0.5-1.4c0.5,0.2,1,0.4,1.5,0.6L28.1,14.7z"/>
<path class="st3" d="M6.3,14.4L5.7,13c0.5-0.2,1-0.4,1.5-0.6l0.5,1.5C7.2,14.1,6.8,14.3,6.3,14.4z"/>
<path class="st3" d="M25.3,13.7c-0.5-0.2-1-0.3-1.4-0.4l0.4-1.5c0.5,0.1,1,0.3,1.5,0.4L25.3,13.7z"/>
<path class="st3" d="M9.1,13.5L8.7,12c0.5-0.1,1-0.3,1.5-0.4l0.4,1.5C10.1,13.2,9.6,13.3,9.1,13.5z"/>
<path class="st3" d="M12,12.8l-0.3-1.5c0.5-0.1,1-0.2,1.6-0.2l0.2,1.5C13,12.6,12.5,12.7,12,12.8z"/>
<path class="st3" d="M19.5,12.5c-0.5,0-1-0.1-1.5-0.1l0.1-1.5c0.5,0,1.1,0.1,1.6,0.1L19.5,12.5z"/>
<path class="st3" d="M15,12.4l-0.1-1.5c0.5,0,1-0.1,1.6-0.1l0,1.5C16,12.4,15.5,12.4,15,12.4z"/>
<path class="st3" d="M7,11.3L6.2,9.1l1.5-0.5l0.7,2.2C7.9,11,7.4,11.1,7,11.3z"/>
<path class="st3" d="M16.6,9.8l0-2.3l1.6,0l-0.1,2.3C17.6,9.8,17.1,9.8,16.6,9.8z"/>
<path class="st3" d="M27.6,11.7c-0.5-0.2-0.9-0.3-1.4-0.5l0.7-2.2l1.5,0.5L27.6,11.7z"/>
</svg>
