<?xml version="1.0" encoding="utf-8"?>
<svg version="1.1" xmlns="http://www.w3.org/2000/svg" viewBox="0 0 160 62">
<style type="text/css">
	.st0{fill:#888;}
	.st1{fill:#FFF;}
	.st2{fill:#444;}
</style>
<path class="st0" d="M96.8,5.2c-7.8,0-14.2,4.1-16.9,11.1c-1.6,4-3.1,10.6-3.3,11.6c-0.3,1-2.4,8.3-4,15.3
	c-0.9,3.8-2.3,4.8-3.6,5.3h0c-1,0.4-2.4,0.6-4.2,0.7l0.4,7.2c2.7-0.1,4.7-0.5,6.5-1.2l0,0c4.2-1.6,6.8-5,8.1-10.4
	c1.7-7.2,3.9-14.9,3.9-15l0.1-0.2c0-0.1,1.6-7,3-10.6c1-2.4,3.6-6.5,10.3-6.5h54.8V5.2H96.8z"/>
<polygon class="st0" points="45.6,56.4 55.2,56.4 55.2,49.2 45.6,49.2"/>
<polygon class="st0" points="26.8,56.4 36.4,56.4 36.4,49.2 26.8,49.2"/>
<circle class="st1" cx="8.8" cy="52.8" r="6.8"/>
<path class="st2" d="M8.8,48c2.7,0,4.8,2.2,4.8,4.8c0,2.7-2.2,4.8-4.8,4.8c-2.7,0-4.8-2.2-4.8-4.8C4,50.2,6.2,48,8.8,48 M8.8,44
	C3.9,44,0,47.9,0,52.8c0,4.9,3.9,8.8,8.8,8.8c4.9,0,8.8-3.9,8.8-8.8C17.6,47.9,13.7,44,8.8,44L8.8,44z"/>
<circle class="st1" cx="104.8" cy="8.8" r="6.8"/>
<path class="st2" d="M104.8,4c2.7,0,4.8,2.2,4.8,4.8c0,2.7-2.2,4.8-4.8,4.8s-4.8-2.2-4.8-4.8C100,6.2,102.2,4,104.8,4 M104.8,0
	C99.9,0,96,3.9,96,8.8c0,4.9,3.9,8.8,8.8,8.8s8.8-3.9,8.8-8.8C113.6,3.9,109.7,0,104.8,0L104.8,0z"/>
<circle class="st1" cx="79.9" cy="28.4" r="6.8"/>
<path class="st2" d="M79.9,23.5c2.7,0,4.8,2.2,4.8,4.8c0,2.7-2.2,4.8-4.8,4.8c-2.7,0-4.8-2.2-4.8-4.8
	C75.1,25.7,77.3,23.5,79.9,23.5 M79.9,19.5c-4.9,0-8.8,3.9-8.8,8.8s3.9,8.8,8.8,8.8s8.8-3.9,8.8-8.8S84.8,19.5,79.9,19.5L79.9,19.5
	z"/>
<circle class="st1" cx="151.2" cy="8.8" r="6.8"/>
<path class="st2" d="M151.2,4c2.7,0,4.8,2.2,4.8,4.8c0,2.7-2.2,4.8-4.8,4.8s-4.8-2.2-4.8-4.8C146.4,6.2,148.6,4,151.2,4 M151.2,0
	c-4.9,0-8.8,3.9-8.8,8.8c0,4.9,3.9,8.8,8.8,8.8s8.8-3.9,8.8-8.8C160,3.9,156.1,0,151.2,0L151.2,0z"/>
</svg>