<?xml version="1.0" encoding="utf-8"?>
<svg version="1.1" xmlns="http://www.w3.org/2000/svg" viewBox="0 0 54 54">
<ellipse fill="none" stroke="#fff" cx="27" cy="27" rx="21" ry="21" />
<path fill="#fff" stroke="none" d="M23.9,27c0,0.8-0.3,1.8-0.8,2.5l4.6,4.6c0.8-0.5,1.5-0.7,2.5-0.7c2.3,0,4.4,1.9,4.4,4.4s-2,4.2-4.3,4.2
	s-4.4-1.9-4.4-4.4c0-0.8,0.3-1.8,0.8-2.5L22,30.5c-0.8,0.5-1.5,0.8-2.5,0.8c-2.3,0.1-4.2-1.9-4.2-4.2s1.9-4.4,4.4-4.4
	c0.8,0,1.8,0.3,2.5,0.7l4.6-4.6C26.3,18,26,17.3,26,16.3c-0.1-2.4,1.9-4.3,4.3-4.3s4.4,1.9,4.4,4.4c0,2.3-1.9,4.4-4.4,4.4
	c-0.8,0-1.8-0.3-2.5-0.8l-4.6,4.5C23.6,25.2,23.9,26.2,23.9,27"/>
</svg>
