<?xml version="1.0" encoding="utf-8"?>
<svg version="1.1" xmlns="http://www.w3.org/2000/svg" viewBox="0 0 24 24">
<path fill="currentColor" d="M10.9,12c0,0.7-0.2,1.4-0.6,2l3.7,3.7c0.6-0.4,1.2-0.6,2-0.6c1.9,0,3.5,1.5,3.5,3.5S17.9,24,16,24
	c-1.9,0-3.5-1.5-3.5-3.5c0-0.7,0.2-1.4,0.6-2l-3.7-3.7c-0.6,0.4-1.2,0.6-2,0.6C5.5,15.5,4,13.9,4,12s1.5-3.5,3.5-3.5
	c0.7,0,1.4,0.2,2,0.6l3.7-3.7c-0.4-0.6-0.6-1.2-0.6-2C12.5,1.5,14.1,0,16,0c1.9,0,3.5,1.5,3.5,3.5c0,1.9-1.5,3.5-3.5,3.5
	c-0.7,0-1.4-0.2-2-0.6L10.3,10C10.7,10.6,10.9,11.3,10.9,12"/>
</svg>