<?xml version="1.0" encoding="utf-8"?>
<!-- Generator: Adobe Illustrator 21.1.0, SVG Export Plug-In . SVG Version: 6.00 Build 0)  -->
<svg version="1.1" id="Layer_1" xmlns="http://www.w3.org/2000/svg" xmlns:xlink="http://www.w3.org/1999/xlink" x="0px" y="0px"
	 viewBox="0 0 42 42" style="enable-background:new 0 0 42 42;" xml:space="preserve">
<style type="text/css">
	.st0{fill:#FFFFFF;}
</style>
<g id="ell">
	<path class="st0" d="M21,1.5c10.8,0,19.5,8.7,19.5,19.5S31.8,40.5,21,40.5S1.5,31.8,1.5,21S10.3,1.5,21,1.5 M21,0.5
		C9.7,0.5,0.5,9.7,0.5,21S9.7,41.5,21,41.5S41.5,32.3,41.5,21S32.3,0.5,21,0.5L21,0.5z"/>
</g>
<path class="st0" d="M17.9,21c0,0.8-0.3,1.8-0.8,2.5l4.6,4.6c0.8-0.5,1.5-0.7,2.5-0.7c2.3,0,4.4,1.9,4.4,4.4S26.6,36,24.3,36
	s-4.4-1.9-4.4-4.4c0-0.8,0.3-1.8,0.8-2.5L16,24.5c-0.8,0.5-1.5,0.8-2.5,0.8c-2.3,0.1-4.2-1.9-4.2-4.2s1.9-4.4,4.4-4.4
	c0.8,0,1.8,0.3,2.5,0.7l4.6-4.6c-0.5-0.8-0.8-1.5-0.8-2.5C19.9,7.9,21.9,6,24.3,6s4.4,1.9,4.4,4.4c0,2.3-1.9,4.4-4.4,4.4
	c-0.8,0-1.8-0.3-2.5-0.8l-4.6,4.5C17.6,19.2,17.9,20.2,17.9,21"/>
</svg>
